<?xml version="1.0" standalone="no"?>
<!DOCTYPE svg PUBLIC "-//W3C//DTD SVG 20010904//EN"
 "http://www.w3.org/TR/2001/REC-SVG-20010904/DTD/svg10.dtd">
<svg version="1.0" xmlns="http://www.w3.org/2000/svg"
 width="512.000000pt" height="512.000000pt" viewBox="0 0 512.000000 512.000000"
 preserveAspectRatio="xMidYMid meet">
<metadata>
Created by potrace 1.11, written by Peter Selinger 2001-2013
</metadata>
<g transform="translate(0.000000,512.000000) scale(0.100000,-0.100000)"
fill="#000000" stroke="none">
<path d="M405 5018 c-149 -50 -260 -169 -301 -323 -18 -67 -21 -4193 -3 -4277
18 -83 59 -157 124 -223 67 -68 140 -108 231 -124 40 -8 693 -11 2124 -11
2243 0 2115 -3 2230 53 58 28 159 130 189 191 54 109 51 -13 48 2261 -1 1161
-5 2117 -8 2125 -3 8 -9 26 -13 40 -28 94 -130 215 -216 257 -115 56 28 53
-2249 52 -2071 -1 -2097 -1 -2156 -21z m840 -953 c701 -406 650 -375 623 -389
-27 -14 -659 -380 -703 -407 -16 -11 -37 -22 -45 -26 -8 -4 -69 -39 -135 -78
-66 -39 -141 -83 -167 -98 l-48 -28 0 129 0 128 77 45 c42 24 100 57 127 72
28 16 67 39 86 52 38 24 213 127 270 158 19 11 47 28 62 38 14 11 31 19 38 19
6 0 9 4 6 9 -3 4 -154 95 -336 202 l-330 194 0 128 0 129 33 -20 c17 -11 216
-127 442 -257z m1765 -940 l0 -115 -560 0 -560 0 0 115 0 115 560 0 560 0 0
-115z"/>
</g>
</svg>
