<?xml version="1.0" encoding="UTF-8" standalone="no"?>
<svg width="197px" height="442px" viewBox="0 0 197 442" version="1.1" xmlns="http://www.w3.org/2000/svg" xmlns:xlink="http://www.w3.org/1999/xlink" xmlns:sketch="http://www.bohemiancoding.com/sketch/ns">
    <!-- Generator: Sketch 3.5.1 (25234) - http://www.bohemiancoding.com/sketch -->
    <title>logo</title>
    <desc>Created with Sketch.</desc>
    <defs></defs>
    <g id="Page-1" stroke="none" stroke-width="1" fill="none" fill-rule="evenodd" sketch:type="MSPage">
        <g id="Artboard-1" sketch:type="MSArtboardGroup" transform="translate(-818.000000, -75.000000)">
            <g id="logo" sketch:type="MSLayerGroup" transform="translate(815.000000, 74.000000)">
                <g id="Logo-Copy-3" transform="translate(3.000000, 0.000000)" sketch:type="MSShapeGroup">
                    <g id="Logo-1" transform="translate(0.000000, 16.000000)">
                        <path d="M11.312,145.656 C11.8880029,146.616005 12.176,147.719994 12.176,148.968 L12.176,166.248 C12.176,167.736007 11.6600052,168.971995 10.628,169.956 C9.59599484,170.940005 8.2400084,171.432 6.56,171.432 C4.8799916,171.432 3.5600048,170.976005 2.6,170.064 C1.6399952,169.151995 1.16,167.976007 1.16,166.536 L1.16,151.416 L4.184,151.416 L4.184,168.48 C4.184,169.200004 4.39999784,169.799998 4.832,170.28 C5.26400216,170.760002 5.8399964,171 6.56,171 C7.32800384,171 7.9519976,170.760002 8.432,170.28 C8.9120024,169.799998 9.152,169.200004 9.152,168.48 L9.152,149.976 L9.152,149.04 C9.152,148.559998 9.11600036,148.200001 9.044,147.96 C8.97199964,147.719999 8.79200144,147.360002 8.504,146.88 L1.664,136.224 C1.32799832,135.743998 1.16,134.52001 1.16,132.552 L1.16,119.88 C1.16,118.391993 1.67599484,117.156005 2.708,116.172 C3.74000516,115.187995 5.0959916,114.696 6.776,114.696 C8.36000792,114.696 9.65599496,115.247994 10.664,116.352 C11.672005,117.456006 12.176,118.751993 12.176,120.24 L12.176,132.984 L9.152,132.984 L9.152,117.648 C9.152,115.967992 8.36000792,115.128 6.776,115.128 C6.00799616,115.128 5.3840024,115.367998 4.904,115.848 C4.4239976,116.328002 4.184,116.927996 4.184,117.648 L4.184,132.624 C4.184,133.200003 4.19599988,133.691998 4.22,134.1 C4.24400012,134.508002 4.3759988,134.903998 4.616,135.288 L11.312,145.656 Z M25.352,151.416 L28.448,151.416 L28.448,166.536 C28.448,168.024007 27.9560049,169.211996 26.972,170.1 C25.9879951,170.988004 24.6560084,171.432 22.976,171.432 C21.2959916,171.432 19.9400052,170.940005 18.908,169.956 C17.8759948,168.971995 17.36,167.736007 17.36,166.248 L17.36,119.88 C17.36,118.391993 17.8759948,117.156005 18.908,116.172 C19.9400052,115.187995 21.2959916,114.696 22.976,114.696 C24.5600079,114.696 25.8679948,115.259994 26.9,116.388 C27.9320052,117.516006 28.448,118.799993 28.448,120.24 L28.448,132.984 L25.352,132.984 L25.352,117.648 C25.352,115.967992 24.5600079,115.128 22.976,115.128 C22.2079962,115.128 21.5840024,115.367998 21.104,115.848 C20.6239976,116.328002 20.384,116.927996 20.384,117.648 L20.384,168.48 C20.384,169.200004 20.6239976,169.799998 21.104,170.28 C21.5840024,170.760002 22.2079962,171 22.976,171 C23.6960036,171 24.2719978,170.760002 24.704,170.28 C25.1360022,169.799998 25.352,169.200004 25.352,168.48 L25.352,151.416 Z M37.448,139.968 L44.36,139.968 L44.36,115.632 L41.624,115.632 L41.624,115.128 L50.12,115.128 L50.12,115.632 L47.384,115.632 L47.384,170.496 L50.12,170.496 L50.12,171 L41.624,171 L41.624,170.496 L44.36,170.496 L44.36,140.544 L37.448,140.544 L37.448,170.496 L40.184,170.496 L40.184,171 L31.688,171 L31.688,170.496 L34.352,170.496 L34.352,115.632 L31.688,115.632 L31.688,115.128 L40.184,115.128 L40.184,115.632 L37.448,115.632 L37.448,139.968 Z M63.872,115.632 L61.496,115.632 L61.496,115.128 L67.616,115.128 L67.616,115.632 L64.952,115.632 L64.952,167.76 C64.952,169.008006 64.6160034,170.015996 63.944,170.784 C63.2719966,171.552004 62.2640067,171.936 60.92,171.936 C58.9039899,171.936 57.3800052,171.420005 56.348,170.388 C55.3159948,169.355995 54.8,168.000008 54.8,166.32 L54.8,115.632 L52.136,115.632 L52.136,115.128 L60.272,115.128 L60.272,115.632 L57.896,115.632 L57.896,168.12 C57.896,170.13601 58.8559904,171.144 60.776,171.144 C62.8400103,171.144 63.872,170.11201 63.872,168.048 L63.872,115.632 Z M85.616,115.128 L85.616,130.032 L85.112,130.032 C85.112,124.271971 84.7880032,120.444009 84.14,118.548 C83.4919968,116.651991 82.0400113,115.704 79.784,115.704 L78.848,115.632 L78.848,170.496 L81.584,170.496 L81.584,171 L73.088,171 L73.088,170.496 L75.824,170.496 L75.824,115.632 L74.888,115.632 C72.6319887,115.632 71.1800032,116.579991 70.532,118.476 C69.8839968,120.372009 69.56,124.199971 69.56,129.96 L69.056,129.96 L69.056,115.128 L85.616,115.128 Z M87.92,171 L100.088,115.632 L94.472,115.632 C92.2159887,115.632 90.7640032,116.579991 90.116,118.476 C89.4679968,120.372009 89.144,124.199971 89.144,129.96 L88.64,129.96 L88.64,115.128 L103.256,115.128 L91.088,170.424 L96.632,170.424 C98.8880113,170.424 100.339997,169.500009 100.988,167.652 C101.636003,165.803991 101.96,161.976029 101.96,156.168 L102.464,156.168 L102.464,171 L87.92,171 Z M116.648,145.656 C117.224003,146.616005 117.512,147.719994 117.512,148.968 L117.512,166.248 C117.512,167.736007 116.996005,168.971995 115.964,169.956 C114.931995,170.940005 113.576008,171.432 111.896,171.432 C110.215992,171.432 108.896005,170.976005 107.936,170.064 C106.975995,169.151995 106.496,167.976007 106.496,166.536 L106.496,151.416 L109.52,151.416 L109.52,168.48 C109.52,169.200004 109.735998,169.799998 110.168,170.28 C110.600002,170.760002 111.175996,171 111.896,171 C112.664004,171 113.287998,170.760002 113.768,170.28 C114.248002,169.799998 114.488,169.200004 114.488,168.48 L114.488,149.976 L114.488,149.04 C114.488,148.559998 114.452,148.200001 114.38,147.96 C114.308,147.719999 114.128001,147.360002 113.84,146.88 L107,136.224 C106.663998,135.743998 106.496,134.52001 106.496,132.552 L106.496,119.88 C106.496,118.391993 107.011995,117.156005 108.044,116.172 C109.076005,115.187995 110.431992,114.696 112.112,114.696 C113.696008,114.696 114.991995,115.247994 116,116.352 C117.008005,117.456006 117.512,118.751993 117.512,120.24 L117.512,132.984 L114.488,132.984 L114.488,117.648 C114.488,115.967992 113.696008,115.128 112.112,115.128 C111.343996,115.128 110.720002,115.367998 110.24,115.848 C109.759998,116.328002 109.52,116.927996 109.52,117.648 L109.52,132.624 C109.52,133.200003 109.532,133.691998 109.556,134.1 C109.58,134.508002 109.711999,134.903998 109.952,135.288 L116.648,145.656 Z M138.824,115.128 L145.592,115.128 L145.592,115.632 L142.856,115.632 L142.856,170.496 L145.592,170.496 L145.592,171 L137.096,171 L137.096,170.496 L139.76,170.496 L139.76,115.632 L131.984,171 L130.976,171 L124.712,115.632 L124.712,170.496 L127.448,170.496 L127.448,171 L120.968,171 L120.968,170.496 L123.704,170.496 L123.704,115.632 L120.968,115.632 L120.968,115.128 L127.736,115.128 L132.632,158.76 L138.824,115.128 Z M153.584,115.632 L153.584,170.496 L156.32,170.496 L156.32,171 L147.824,171 L147.824,170.496 L150.488,170.496 L150.488,115.632 L147.824,115.632 L147.824,115.128 L156.32,115.128 L156.32,115.632 L153.584,115.632 Z M175.256,115.128 L175.256,130.032 L174.752,130.032 C174.752,124.271971 174.428003,120.444009 173.78,118.548 C173.131997,116.651991 171.680011,115.704 169.424,115.704 L168.488,115.632 L168.488,170.496 L171.224,170.496 L171.224,171 L162.728,171 L162.728,170.496 L165.464,170.496 L165.464,115.632 L164.528,115.632 C162.271989,115.632 160.820003,116.579991 160.172,118.476 C159.523997,120.372009 159.2,124.199971 159.2,129.96 L158.696,129.96 L158.696,115.128 L175.256,115.128 Z M183.392,139.968 L190.304,139.968 L190.304,115.632 L187.568,115.632 L187.568,115.128 L196.064,115.128 L196.064,115.632 L193.328,115.632 L193.328,170.496 L196.064,170.496 L196.064,171 L187.568,171 L187.568,170.496 L190.304,170.496 L190.304,140.544 L183.392,140.544 L183.392,170.496 L186.128,170.496 L186.128,171 L177.632,171 L177.632,170.496 L180.296,170.496 L180.296,115.632 L177.632,115.632 L177.632,115.128 L186.128,115.128 L186.128,115.632 L183.392,115.632 L183.392,139.968 Z" id="Schutzsmith" fill="#212121"></path>
                        <path d="M18.04,109 L1.24,109 L1.24,108.02 L6.42,108.02 L6.42,1.34 L1.24,1.34 L1.24,0.36 L18.04,0.36 C21.2133492,0.36 23.7566571,1.4566557 25.67,3.65 C27.5833429,5.8433443 28.54,8.3866522 28.54,11.28 L28.54,99.48 C28.54,102.280014 27.606676,104.566658 25.74,106.34 C23.873324,108.113342 21.306683,109 18.04,109 L18.04,109 Z M12.44,108.02 L18.04,108.02 C19.440007,108.02 20.5599958,107.553338 21.4,106.62 C22.2400042,105.686662 22.66,104.566673 22.66,103.26 L22.66,6.24 C22.66,2.973317 21.1200154,1.34 18.04,1.34 L12.44,1.34 L12.44,108.02 Z M45.62,77.36 L41.28,108.02 L46.6,108.02 L46.6,109 L34,109 L34,108.02 L39.32,108.02 L54.44,0.36 L56.4,0.36 L68.58,108.02 L73.9,108.02 L73.9,109 L57.38,109 L57.38,108.02 L62.7,108.02 L59.2,77.36 L45.62,77.36 Z M45.9,75.26 L58.92,75.26 L53.18,24.16 L45.9,75.26 Z M103.44,77.64 L103.44,1.34 L97.98,1.34 L97.98,0.36 L110.58,0.36 L110.58,1.34 L105.4,1.34 L105.4,109.98 L103.44,109.98 L83.42,1.34 L83.42,108.02 L88.74,108.02 L88.74,109 L76.14,109 L76.14,108.02 L81.46,108.02 L81.46,1.34 L76.14,1.34 L76.14,0.36 L89.3,0.36 L103.44,77.64 Z M126.82,1.34 L126.82,108.02 L132.14,108.02 L132.14,109 L115.62,109 L115.62,108.02 L120.8,108.02 L120.8,1.34 L115.62,1.34 L115.62,0.36 L132.14,0.36 L132.14,1.34 L126.82,1.34 Z M163.64,109 L136.76,109 L136.76,108.02 L141.94,108.02 L141.94,1.34 L136.76,1.34 L136.76,0.36 L163.64,0.36 L163.64,29.2 L162.52,29.2 C162.52,17.9066102 161.913339,10.4400182 160.7,6.8 C159.486661,3.1599818 156.686689,1.34 152.3,1.34 L147.96,1.34 L147.96,48.66 C150.200011,48.66 151.903328,47.6566767 153.07,45.65 C154.236673,43.6433233 154.82,39.7000294 154.82,33.82 L155.94,33.82 L155.94,64.62 L154.82,64.62 C154.82,58.7399706 154.283339,54.7966767 153.21,52.79 C152.136661,50.7833233 150.526677,49.78 148.38,49.78 L147.96,108.02 L152.3,108.02 C156.593355,108.02 159.369994,106.176685 160.63,102.49 C161.890006,98.8033149 162.52,91.360056 162.52,80.16 L163.64,80.16 L163.64,109 Z M183.38,108.02 C187.673355,108.02 190.449994,106.176685 191.71,102.49 C192.970006,98.8033149 193.6,91.360056 193.6,80.16 L194.72,80.16 L194.72,109 L167.84,109 L167.84,108.02 L173.02,108.02 L173.02,1.34 L167.84,1.34 L167.84,0.36 L184.36,0.36 L184.36,1.34 L179.04,1.34 L179.04,108.02 L183.38,108.02 Z" id="Daniel" fill="#212121"></path>
                        <path d="M9.649,239.9 L0.937,239.9 L0.937,263 L9.649,263 C24.697,262.934 24.697,239.966 9.649,239.9 L9.649,239.9 Z M6.844,245.279 L9.649,245.279 C17.008,245.279 17.008,257.621 9.649,257.621 L6.844,257.621 L6.844,245.279 Z M39.844,239.9 L25.423,239.9 L25.423,263 L40.141,263 L40.141,257.753 L31.297,257.753 L31.297,253.694 L39.151,253.694 L39.151,248.447 L31.297,248.447 L31.297,245.18 L39.844,245.18 L39.844,239.9 L39.844,239.9 Z M48.424,239.9 L42.748,239.9 L42.748,240.791 L52.648,263.264 L55.156,263.264 L64.957,240.791 L64.957,239.9 L59.281,239.9 L54.001,252.968 L53.836,252.968 L48.424,239.9 Z M82.81,239.9 L68.389,239.9 L68.389,263 L83.107,263 L83.107,257.753 L74.263,257.753 L74.263,253.694 L82.117,253.694 L82.117,248.447 L74.263,248.447 L74.263,245.18 L82.81,245.18 L82.81,239.9 L82.81,239.9 Z M94.096,239.9 L88.156,239.9 L88.156,263 L102.478,263 L102.478,257.687 L94.096,257.687 L94.096,239.9 L94.096,239.9 Z M128.812,251.483 C128.812,235.511 105.118,235.511 105.118,251.483 C105.118,267.488 128.812,267.488 128.812,251.483 L128.812,251.483 Z M111.19,251.483 C111.19,243.167 122.773,243.167 122.773,251.483 C122.773,259.865 111.19,259.865 111.19,251.483 L111.19,251.483 Z M139.174,263 L139.174,257.093 L143.431,257.093 C154.486,257.093 154.486,239.933 143.431,239.9 L133.267,239.9 L133.267,263 L139.174,263 L139.174,263 Z M143.398,251.78 L139.174,251.78 L139.174,245.18 C140.527,245.18 142.012,245.147 143.398,245.18 C146.83,245.213 146.632,251.78 143.398,251.78 L143.398,251.78 Z M170.59,239.9 L156.169,239.9 L156.169,263 L170.887,263 L170.887,257.753 L162.043,257.753 L162.043,253.694 L169.897,253.694 L169.897,248.447 L162.043,248.447 L162.043,245.18 L170.59,245.18 L170.59,239.9 L170.59,239.9 Z M190.951,254.816 C196.792,250.856 195.142,239.933 186.067,239.9 L175.936,239.9 L175.936,263 L181.843,263 L181.843,256.202 L184.912,256.202 L188.872,263 L195.472,263 L195.472,262.142 L190.951,254.816 Z M186.067,250.955 L181.843,250.955 L181.843,245.18 C183.229,245.18 184.681,245.147 186.067,245.18 C189.433,245.213 189.268,250.955 186.067,250.955 L186.067,250.955 Z" id="DEVELOPER" fill="#673AB7"></path>
                        <path d="M10.2539062,331.964844 L10.2539062,335.773438 L11.6162109,335.773438 L11.6308594,340.62207 L7.52929688,340.62207 L7.54394531,335.773438 L8.86230469,335.773438 L8.86230469,331.964844 L1.45019531,331.964844 L1.45019531,335.773438 L3.29589844,335.773438 L3.29589844,349.191406 L1.45019531,349.191406 L1.45019531,353 L8.86230469,353 L8.86230469,349.191406 L7.54394531,349.191406 L7.52929688,344.84082 L11.6308594,344.84082 L11.6162109,349.191406 L10.2539062,349.191406 L10.2539062,353 L17.7539062,353 L17.7539062,349.191406 L15.9082031,349.191406 L15.8789062,335.773438 L17.7539062,335.773438 L17.7539062,331.964844 L10.2539062,331.964844 Z M27.8503907,331.979492 L27.8503907,335.773438 L29.1833985,335.773438 L29.1833985,348.444336 L28.4070313,349.235352 L25.7263672,349.220703 L24.9792969,348.488281 L24.9792969,335.773438 L26.3269532,335.773438 L26.3269532,331.979492 L18.8855469,331.979492 L18.8855469,335.773438 L20.73125,335.773438 L20.73125,350.246094 L23.5291016,353 L30.7507813,353 L33.4314454,350.348633 L33.4607422,335.773438 L35.3064454,335.773438 L35.3064454,331.979492 L27.8503907,331.979492 Z M36.5406251,332.008789 L36.5406251,335.817383 L38.3716798,335.817383 L38.4009767,349.25 L36.5552735,349.25 L36.5552735,353 L48.4058595,353 L51.101172,350.304688 L51.1158204,334.791992 L48.3326173,332.008789 L36.5406251,332.008789 Z M42.663672,335.817383 L45.9742188,335.817383 L46.8677735,336.725586 L46.8677735,348.297852 L45.9302735,349.191406 L42.663672,349.191406 L42.663672,335.817383 Z M55.792383,331.994141 L52.9945314,334.791992 L52.9945314,341.530273 L61.1244142,345.866211 L61.1244142,348.356445 L60.3187501,349.162109 L57.6527345,349.176758 L56.9056642,348.415039 L56.8910158,346.62793 L52.6576173,346.642578 L52.6576173,350.216797 L55.4408205,353 L62.5306642,353 L65.3578126,350.158203 L65.3578126,343.537109 L57.2425783,339.201172 L57.2425783,336.608398 L58.0335939,335.802734 L60.714258,335.802734 L61.4466798,336.549805 L61.4466798,338.307617 L65.6800783,338.307617 L65.6800783,334.806641 L62.8968751,331.994141 L55.792383,331.994141 Z M69.8146486,331.994141 L67.0167971,334.791992 L67.0167971,350.202148 L69.8146486,353 L76.9191408,353 L79.7316408,350.202148 L79.7316408,334.777344 L76.9191408,331.994141 L69.8146486,331.994141 Z M72.0119143,349.162109 L71.2648439,348.400391 L71.2648439,336.608398 L72.070508,335.802734 L74.7511721,335.802734 L75.4835939,336.549805 L75.4835939,348.356445 L74.7072268,349.162109 L72.0119143,349.162109 Z M90.6630862,331.979492 L90.6630862,335.773438 L91.8056643,335.773438 L91.8203127,341.911133 L88.6855471,335.773438 L89.4326174,335.773438 L89.4326174,331.979492 L81.3173831,331.979492 L81.3173831,335.773438 L83.1630862,335.773438 L83.1630862,349.206055 L81.3173831,349.206055 L81.3173831,353 L88.1289065,353 L88.1289065,349.206055 L87.0888674,349.206055 L87.0888674,342.101562 L90.5019534,349.206055 L89.5205081,349.206055 L89.5205081,353 L97.5478518,353 L97.5478518,349.206055 L95.7167971,349.206055 L95.7167971,335.773438 L97.5478518,335.773438 L97.5478518,331.979492 L90.6630862,331.979492 Z M113.185157,331.979492 L113.185157,335.773438 L114.415625,335.773438 L112.408789,344.37207 L110.460547,335.773438 L111.647071,335.773438 L111.647071,331.979492 L104.440039,331.979492 L104.440039,335.773438 L106.241797,335.773438 L110.372657,353 L114.488868,353 L118.59043,335.773438 L120.392188,335.773438 L120.392188,331.979492 L113.185157,331.979492 Z M125.098047,331.979492 L121.948633,349.206055 L120.117579,349.206055 L120.117579,353 L126.914454,353 L126.914454,349.206055 L125.845118,349.206055 L126.094141,347.345703 L129.214258,347.345703 L129.419336,349.206055 L128.379297,349.206055 L128.379297,353 L135.10293,353 L135.10293,349.206055 L133.257227,349.206055 L130.151758,331.979492 L125.098047,331.979492 Z M127.646875,337.560547 L128.599024,343.551758 L126.709375,343.551758 L127.646875,337.560547 Z M135.341016,331.979492 L135.341016,335.773438 L137.172071,335.773438 L137.172071,349.176758 L135.384961,349.176758 L135.384961,353 L149.623243,353 L149.623243,347.345703 L145.829297,347.345703 L145.829297,349.176758 L141.405469,349.176758 L141.434766,335.773438 L143.207227,335.773438 L143.207227,331.979492 L135.341016,331.979492 Z M150.901368,331.979492 L150.901368,335.773438 L152.732422,335.773438 L152.732422,349.176758 L150.945313,349.176758 L150.945313,353 L165.183594,353 L165.183594,347.345703 L161.389649,347.345703 L161.389649,349.176758 L156.965821,349.176758 L156.995118,335.773438 L158.767579,335.773438 L158.767579,331.979492 L150.901368,331.979492 Z M166.54961,331.979492 L166.54961,335.773438 L168.395313,335.773438 L168.395313,349.235352 L166.593555,349.235352 L166.593555,353 L180.831836,353 L180.831836,352.985352 L180.846485,352.985352 L180.846485,347.360352 L177.037891,347.360352 L177.037891,349.191406 L172.64336,349.191406 L172.64336,344.049805 L178.810352,344.049805 L178.810352,340.299805 L172.64336,340.299805 L172.64336,335.788086 L177.037891,335.788086 L177.037891,337.633789 L180.846485,337.633789 L180.846485,331.979492 L166.54961,331.979492 Z M189.946876,332.008789 L189.946876,335.802734 L190.444922,335.802734 L189.229102,338.922852 L187.969337,335.802734 L188.423438,335.802734 L188.423438,332.008789 L181.875587,332.008789 L181.875587,335.802734 L183.648047,335.802734 L187.075782,344.079102 L187.061133,349.220703 L185.230079,349.220703 L185.230079,353 L193.140235,353 L193.140235,349.220703 L191.294532,349.220703 L191.30918,344.079102 L194.722266,335.802734 L196.494727,335.802734 L196.494727,332.008789 L189.946876,332.008789 Z" id="HudsON-VALLEY" fill="#673AB7"></path>
                        <path d="M89.4575,411.0725 L94.0975,411.0725 L94.0975,360.25 L80.83,360.25 L80.83,385.1175 L55.165,360.0325 L50.4525,360.0325 L50.4525,411 L63.865,411 L63.865,386.06 L89.4575,411.0725 Z M56.615,370.4725 L57.4125,370.4725 C62.27,375.185 67.1275,379.97 71.84,384.755 C76.9875,389.54 81.99,394.5425 87.065,399.545 L87.065,365.18 L87.8625,365.18 L87.8625,400.7775 L87.2825,400.7775 C82.28,395.92 77.4225,391.2075 72.565,386.4225 C67.635,381.565 62.56,376.5625 57.485,371.705 L57.485,405.9975 L56.615,405.9975 L56.615,370.4725 Z M107.0475,365.1075 L107.99,365.1075 L121.6925,387.1475 L135.3225,365.1075 L136.265,365.1075 L122.055,388.0175 L122.055,406.1425 L121.2575,406.1425 L121.2575,388.0175 L107.0475,365.1075 Z M128.0725,389.685 L145.1825,362.2075 L145.1825,360.25 L131.1175,360.25 L121.91,377.1425 L121.4025,377.1425 L112.195,360.25 L98.2025,360.25 L98.2025,362.2075 L115.24,389.685 L115.24,411 L128.0725,411 L128.0725,389.685 Z M144.5025,385.625 C144.575,402.88 157.625,411.58 170.53,411.5075 C181.3325,411.5075 192.715,405.8525 194.6,391.4975 L181.84,391.4975 C180.4625,396.935 176.04,399.69 170.53,399.69 C162.845,399.6175 157.915,393.0925 157.915,385.625 C157.915,377.215 162.9175,371.4875 170.53,371.4875 C175.9675,371.4875 179.81,373.8075 181.6225,378.955 L194.3825,378.955 C192.425,365.3975 181.0425,359.67 170.53,359.67 C157.625,359.67 144.575,368.37 144.5025,385.625 L144.5025,385.625 Z M186.915,396.065 C183.87,402.445 177.49,405.925 170.53,405.925 C160.7425,405.9975 150.8825,398.7475 150.8825,385.625 C150.8825,372.43 160.7425,365.2525 170.53,365.2525 C177.345,365.2525 183.29,368.2975 186.625,374.315 L185.755,374.315 C182.565,368.66 177.055,365.905 170.53,365.905 C161.1775,365.905 151.6075,372.9375 151.6075,385.625 C151.6075,398.24 161.1775,405.2 170.53,405.2 C177.2725,405.2 182.855,402.2275 186.045,396.065 L186.915,396.065 Z" id="NYC" fill="#673AB7"></path>
                        <path d="M6.644,379.72 L6.644,397 L12.308,397 L12.308,379.72 L17.78,379.72 L17.78,374.6 L1.14,374.6 L1.14,379.72 L6.644,379.72 Z M42.932,385.832 C42.932,370.344 19.956,370.344 19.956,385.832 C19.956,401.352 42.932,401.352 42.932,385.832 L42.932,385.832 Z M25.844,385.832 C25.844,377.768 37.076,377.768 37.076,385.832 C37.076,393.96 25.844,393.96 25.844,385.832 L25.844,385.832 Z" id="TO" fill="#673AB7"></path>
                        <path d="M20.148,217.2685 C20.148,220.480516 19.3510913,223.503902 17.75725,226.33875 C16.1634087,229.173598 14.0160135,231.406159 11.315,233.0365 L10.22,233.0365 C12.9210135,231.406159 15.0684087,229.173598 16.66225,226.33875 C18.2560913,223.503902 19.053,220.480516 19.053,217.2685 C19.053,214.080817 18.2682578,211.075681 16.69875,208.253 C15.1292422,205.430319 13.0183466,203.191675 10.366,201.537 L11.4975,201.537 C14.1255131,203.191675 16.2242422,205.430319 17.79375,208.253 C19.3632578,211.075681 20.148,214.080817 20.148,217.2685 L20.148,217.2685 Z M16.571,217.2685 C16.571,221.21052 15.2691797,224.714485 12.6655,227.7805 C9.98881995,230.919516 6.69168625,232.634999 2.774,232.927 L1.314,233.0365 L1.314,201.4275 L2.774,201.537 C6.69168625,201.829001 9.98881995,203.544484 12.6655,206.6835 C15.2691797,209.749515 16.571,213.277813 16.571,217.2685 L16.571,217.2685 Z M13.797,217.2685 C13.797,214.324152 12.8845091,211.623179 11.0595,209.1655 C9.23449087,206.707821 6.89851423,205.16267 4.0515,204.53 L4.0515,229.934 C6.89851423,229.30133 9.23449087,227.768346 11.0595,225.335 C12.8845091,222.901655 13.797,220.212848 13.797,217.2685 L13.797,217.2685 Z M8.322,209.4575 L7.665,225.408 C7.54333272,225.505334 7.36083455,225.645249 7.1175,225.82775 C6.87416545,226.010251 6.69166727,226.150166 6.57,226.2475 L6.57,208.2165 C7.03233564,208.508501 7.6163298,208.922164 8.322,209.4575 L8.322,209.4575 Z M38.7995,207.45 L32.0105,207.45 L28.032,218.4365 L28.032,206.72 L37.7045,206.72 L37.7045,201.537 L38.7995,201.537 L38.7995,207.45 Z M36.5,233 L22.776,233 L22.776,201.537 L35.405,201.537 L35.405,204.2745 L25.5865,204.2745 L25.5865,220.955 L35.478,220.955 L35.478,223.6925 L25.5865,223.6925 L25.5865,230.2625 L36.5,230.2625 L36.5,233 Z M38.7995,226.211 L29.1635,226.211 L29.1635,227.744 L28.032,227.744 L28.032,225.481 L37.7045,225.481 L37.7045,218.4365 L38.7995,218.4365 L38.7995,226.211 Z M39.858,233.0365 L38.7265,233.0365 L38.7265,227.744 L39.858,227.744 L39.858,233.0365 Z M57.013,206.793 C56.6236647,206.793 56.2465018,206.8295 55.8815,206.9025 L55.8815,201.537 L57.013,201.537 L57.013,206.793 Z M59.3855,225.3715 C59.3855,228.461849 58.2175117,231.016823 55.8815,233.0365 L54.7865,233.0365 C57.1225117,231.016823 58.2905,228.461849 58.2905,225.3715 C58.2905,222.719153 57.4145088,220.431843 55.6625,218.5095 L51.1365,213.5455 C50.2848291,212.596495 49.859,211.550172 49.859,210.4065 C49.859,209.335828 50.2179131,208.46592 50.93575,207.79675 C51.6535869,207.12758 52.547828,206.793 53.6185,206.793 L54.823,206.793 L54.823,206.939 C52.8519901,207.425669 51.8665,208.763989 51.8665,210.954 C51.8665,211.830004 52.2314963,212.693829 52.9615,213.5455 L57.159,218.5095 C58.6433408,220.261509 59.3855,222.548819 59.3855,225.3715 L59.3855,225.3715 Z M55.8085,225.3715 C55.8085,227.464177 55.0602575,229.258743 53.56375,230.75525 C52.0672425,232.251757 50.2726771,233 48.18,233 C45.9169887,233 44.0190077,232.160508 42.486,230.4815 L44.5665,228.62 C45.5398382,229.715005 46.7443262,230.2625 48.18,230.2625 C49.51834,230.2625 50.6619953,229.781921 51.611,228.82075 C52.5600047,227.859579 53.0345,226.70984 53.0345,225.3715 C53.0345,224.10616 52.6086709,222.999005 51.757,222.05 L47.231,217.0495 C45.4789912,215.102824 44.603,212.888512 44.603,210.4065 C44.603,207.900154 45.4850745,205.795342 47.24925,204.092 C49.0134255,202.388658 51.1486541,201.537 53.655,201.537 L53.655,204.2745 C51.9029912,204.2745 50.4125895,204.858494 49.18375,206.0265 C47.9549105,207.194506 47.3405,208.654491 47.3405,210.4065 C47.3405,212.231509 47.9731603,213.837493 49.2385,215.2245 L53.801,220.1885 C55.13934,221.648507 55.8085,223.376157 55.8085,225.3715 L55.8085,225.3715 Z M69.496,201.5005 L68.401,233 L67.2695,233 L67.2695,201.5005 L69.496,201.5005 Z M64.751,233 L62.0135,233 L62.0135,201.5005 L64.751,201.5005 L64.751,233 Z M100.0465,204.4935 L97.601,208.1435 C97.5279996,208.094833 97.4063342,208.015751 97.236,207.90625 C97.0656658,207.796749 96.9318338,207.717667 96.8345,207.669 L99.2435,203.9825 L100.0465,204.4935 Z M101.397,231.686 C100.934664,232.002335 100.216838,232.452497 99.2435,233.0365 L98.112,233.0365 C98.7203364,232.695832 99.4381625,232.245669 100.2655,231.686 L100.2655,219.13 L101.397,219.13 L101.397,231.686 Z M97.7835,230.372 C94.5958174,232.41601 91.4203491,233.438 88.257,233.438 C83.8283112,233.438 80.0323491,231.856349 76.869,228.693 C73.7056508,225.529651 72.124,221.733689 72.124,217.305 C72.124,212.851978 73.7056508,209.037766 76.869,205.86225 C80.0323491,202.686734 83.8283112,201.099 88.257,201.099 C91.4690161,201.099 94.437653,201.987158 97.163,203.7635 L95.63,206.0995 C93.439989,204.639493 90.982347,203.9095 88.257,203.9095 C84.5826483,203.9095 81.4315131,205.217404 78.8035,207.83325 C76.1754869,210.449096 74.8615,213.606315 74.8615,217.305 C74.8615,220.979352 76.1754869,224.124404 78.8035,226.74025 C81.4315131,229.356096 84.5826483,230.664 88.257,230.664 C90.666012,230.664 92.9289894,230.067839 95.046,228.8755 L95.046,224.386 L88.038,224.386 L88.038,221.612 L97.7835,221.612 L97.7835,230.372 Z M89.644,206.9025 C86.7726523,207.072834 84.33326,208.216489 82.32575,210.3335 C80.31824,212.450511 79.3145,214.956819 79.3145,217.8525 C79.3145,221.502518 80.7988185,224.434656 83.7675,226.649 C85.373508,227.573671 87.0768243,228.084666 88.8775,228.182 L88.257,228.182 C86.2373232,228.182 84.3758418,227.671005 82.6725,226.649 C81.066492,225.675662 79.7829215,224.361675 78.82175,222.707 C77.8605785,221.052325 77.38,219.251676 77.38,217.305 C77.38,214.287652 78.4445727,211.708344 80.57375,209.567 C82.7029273,207.425656 85.263985,206.355 88.257,206.355 C88.4030007,206.355 88.8653294,206.537498 89.644,206.9025 L89.644,206.9025 Z M132.13,233.0365 L131.035,233.0365 L131.035,202.3035 L132.13,202.3035 L132.13,233.0365 Z M123.516,220.4805 L108.551,202.3035 L109.6095,202.3035 L123.516,219.1665 L123.516,220.4805 Z M128.626,234.898 L106.726,207.961 L106.726,233 L104.025,233 L104.025,200.4055 L125.925,227.3425 L125.925,202.3035 L128.626,202.3035 L128.626,234.898 Z M111.69,217.889 L110.23,233 L109.1715,233 L109.1715,214.7865 L111.69,217.889 Z M150.7815,207.45 L143.9925,207.45 L140.014,218.4365 L140.014,206.72 L149.6865,206.72 L149.6865,201.537 L150.7815,201.537 L150.7815,207.45 Z M148.482,233 L134.758,233 L134.758,201.537 L147.387,201.537 L147.387,204.2745 L137.5685,204.2745 L137.5685,220.955 L147.46,220.955 L147.46,223.6925 L137.5685,223.6925 L137.5685,230.2625 L148.482,230.2625 L148.482,233 Z M150.7815,226.211 L141.1455,226.211 L141.1455,227.744 L140.014,227.744 L140.014,225.481 L149.6865,225.481 L149.6865,218.4365 L150.7815,218.4365 L150.7815,226.211 Z M151.84,233.0365 L150.7085,233.0365 L150.7085,227.744 L151.84,227.744 L151.84,233.0365 Z M174.397,214.6405 C174.397,216.927845 173.922505,219.087407 172.9735,221.11925 C172.024495,223.151093 170.710508,224.884826 169.0315,226.3205 L172.864,232.4525 L169.141,234.7155 L168.046,234.7155 L171.7325,232.4525 L167.9,226.3205 C169.579008,224.884826 170.899079,223.151093 171.86025,221.11925 C172.821421,219.087407 173.302,216.927845 173.302,214.6405 C173.302,211.939486 172.645007,209.408845 171.331,207.0485 C170.041327,204.761155 168.301511,202.924007 166.1115,201.537 L167.243,201.537 C169.433011,202.924007 171.16066,204.761155 172.426,207.0485 C173.740007,209.408845 174.397,211.939486 174.397,214.6405 L174.397,214.6405 Z M170.7835,214.6405 C170.7835,216.903511 170.229922,219.014407 169.12275,220.97325 C168.015578,222.932093 166.525176,224.507661 164.6515,225.7 L168.557,232.0875 L166.221,233.511 L162.1695,226.9045 C160.685159,227.439836 159.200841,227.7075 157.7165,227.7075 C157.497499,227.7075 157.327167,227.695333 157.2055,227.671 L157.2055,233 L154.468,233 L154.468,201.537 L157.7165,201.537 C161.317851,201.537 164.395987,202.82057 166.951,205.38775 C169.506013,207.95493 170.7835,211.039149 170.7835,214.6405 L170.7835,214.6405 Z M161.1475,230.007 L161.0015,230.007 C160.9285,230.031333 160.879833,230.0435 160.8555,230.0435 L160.8555,233 L159.724,233 L159.724,230.0435 L161.038,229.8245 L161.1475,230.007 Z M168.046,214.6405 C168.046,211.793486 167.030093,209.354093 164.99825,207.32225 C162.966407,205.290407 160.539181,204.2745 157.7165,204.2745 L157.2055,204.2745 L157.2055,224.9335 L157.7165,224.9335 C160.539181,224.9335 162.966407,223.923677 164.99825,221.904 C167.030093,219.884323 168.046,217.463181 168.046,214.6405 L168.046,214.6405 Z M162.1695,208.107 L160.8555,221.7945 C160.733833,221.843167 160.545251,221.910083 160.28975,221.99525 C160.034249,222.080417 159.845667,222.147333 159.724,222.196 L159.7605,207.085 C160.295836,207.231001 161.098828,207.571664 162.1695,208.107 L162.1695,208.107 Z M195.859,217.2685 C195.859,220.480516 195.062091,223.503902 193.46825,226.33875 C191.874409,229.173598 189.727014,231.406159 187.026,233.0365 L185.931,233.0365 C188.632014,231.406159 190.779409,229.173598 192.37325,226.33875 C193.967091,223.503902 194.764,220.480516 194.764,217.2685 C194.764,214.080817 193.979258,211.075681 192.40975,208.253 C190.840242,205.430319 188.729347,203.191675 186.077,201.537 L187.2085,201.537 C189.836513,203.191675 191.935242,205.430319 193.50475,208.253 C195.074258,211.075681 195.859,214.080817 195.859,217.2685 L195.859,217.2685 Z M192.282,217.2685 C192.282,221.21052 190.98018,224.714485 188.3765,227.7805 C185.69982,230.919516 182.402686,232.634999 178.485,232.927 L177.025,233.0365 L177.025,201.4275 L178.485,201.537 C182.402686,201.829001 185.69982,203.544484 188.3765,206.6835 C190.98018,209.749515 192.282,213.277813 192.282,217.2685 L192.282,217.2685 Z M189.508,217.2685 C189.508,214.324152 188.595509,211.623179 186.7705,209.1655 C184.945491,206.707821 182.609514,205.16267 179.7625,204.53 L179.7625,229.934 C182.609514,229.30133 184.945491,227.768346 186.7705,225.335 C188.595509,222.901655 189.508,220.212848 189.508,217.2685 L189.508,217.2685 Z M184.033,209.4575 L183.376,225.408 C183.254333,225.505334 183.071835,225.645249 182.8285,225.82775 C182.585165,226.010251 182.402667,226.150166 182.281,226.2475 L182.281,208.2165 C182.743336,208.508501 183.32733,208.922164 184.033,209.4575 L184.033,209.4575 Z" id="DesignerD-" fill="#673AB7"></path>
                        <path d="M1.094,302 L1.094,269.432 L12.824,269.432 L12.824,270.352 L2.106,270.352 L2.106,284.658 L12.18,284.658 L12.18,285.578 L2.106,285.578 L2.106,301.08 L13.146,301.08 L13.146,302 L1.094,302 Z M30.5160001,302 L16.8080001,270.628 L16.7160001,270.628 L16.7160001,302 L15.7040001,302 L15.7040001,269.432 L17.3600001,269.432 L31.0220001,300.758 L31.1140001,300.758 L31.1140001,269.432 L32.1260001,269.432 L32.1260001,302 L30.5160001,302 Z M40.1120001,270.352 L40.1120001,302 L39.1000001,302 L39.1000001,270.352 L32.6600001,270.352 L32.6600001,269.432 L46.5520001,269.432 L46.5520001,270.352 L40.1120001,270.352 Z M60.1040002,302 L53.2500002,285.578 L48.0980002,285.578 L48.0980002,302 L47.0860002,302 L47.0860002,269.432 L53.4800002,269.432 C54.2773375,269.432 55.1206624,269.546999 56.0100002,269.777 C56.899338,270.007001 57.7119965,270.420997 58.4480002,271.019 C59.1840039,271.617003 59.7973311,272.429662 60.2880002,273.457 C60.7786693,274.484338 61.0240002,275.795325 61.0240002,277.39 C61.0240002,278.892674 60.8170022,280.157662 60.4030002,281.185 C59.9889981,282.212338 59.4600034,283.047997 58.8160002,283.692 C58.171997,284.336003 57.4513375,284.803665 56.6540002,285.095 C55.8566629,285.386335 55.0746707,285.532 54.3080002,285.532 L61.2540002,302 L60.1040002,302 Z M60.0580002,277.39 C60.0580002,276.04066 59.8663354,274.913671 59.4830002,274.009 C59.0996649,273.104329 58.59367,272.383669 57.9650002,271.847 C57.3363304,271.310331 56.6080043,270.927001 55.7800002,270.697 C54.951996,270.466999 54.1086711,270.352 53.2500002,270.352 L48.0980002,270.352 L48.0980002,284.658 L53.5720002,284.658 C55.6880108,284.658 57.2979947,283.998673 58.4020002,282.68 C59.5060057,281.361327 60.0580002,279.598011 60.0580002,277.39 L60.0580002,277.39 Z M63.7660002,302 L63.7660002,269.432 L75.4960002,269.432 L75.4960002,270.352 L64.7780002,270.352 L64.7780002,284.658 L74.8520002,284.658 L74.8520002,285.578 L64.7780002,285.578 L64.7780002,301.08 L75.8180002,301.08 L75.8180002,302 L63.7660002,302 Z M92.0840003,277.528 C92.0840003,278.87734 91.9000021,280.080995 91.5320003,281.139 C91.1639984,282.197005 90.6656701,283.08633 90.0370003,283.807 C89.4083305,284.52767 88.6646712,285.079665 87.8060003,285.463 C86.9473293,285.846335 86.0273385,286.038 85.0460003,286.038 L79.3880003,286.038 L79.3880003,302 L78.3760003,302 L78.3760003,269.432 L84.7700003,269.432 C85.5980044,269.432 86.4413293,269.562332 87.3000003,269.823 C88.1586712,270.083668 88.9406634,270.520664 89.6460003,271.134 C90.3513371,271.747336 90.933998,272.575328 91.3940003,273.618 C91.8540026,274.660672 92.0840003,275.963992 92.0840003,277.528 L92.0840003,277.528 Z M91.0720003,277.528 C91.0720003,276.209327 90.8956687,275.097671 90.5430003,274.193 C90.1903319,273.288329 89.7226699,272.552336 89.1400003,271.985 C88.5573307,271.417664 87.9133371,271.003668 87.2080003,270.743 C86.5026634,270.482332 85.7973371,270.352 85.0920003,270.352 L79.3880003,270.352 L79.3880003,285.072 L85.2300003,285.072 C85.9353371,285.072 86.6406634,284.926335 87.3460003,284.635 C88.0513371,284.343665 88.6799975,283.891336 89.2320003,283.278 C89.784003,282.664664 90.2286653,281.882671 90.5660003,280.932 C90.9033353,279.981329 91.0720003,278.846673 91.0720003,277.528 L91.0720003,277.528 Z M107.384,302 L100.53,285.578 L95.3780003,285.578 L95.3780003,302 L94.3660003,302 L94.3660003,269.432 L100.76,269.432 C101.557338,269.432 102.400663,269.546999 103.29,269.777 C104.179338,270.007001 104.991997,270.420997 105.728,271.019 C106.464004,271.617003 107.077331,272.429662 107.568,273.457 C108.058669,274.484338 108.304,275.795325 108.304,277.39 C108.304,278.892674 108.097002,280.157662 107.683,281.185 C107.268998,282.212338 106.740004,283.047997 106.096,283.692 C105.451997,284.336003 104.731338,284.803665 103.934,285.095 C103.136663,285.386335 102.354671,285.532 101.588,285.532 L108.534,302 L107.384,302 Z M107.338,277.39 C107.338,276.04066 107.146336,274.913671 106.763,274.009 C106.379665,273.104329 105.87367,272.383669 105.245,271.847 C104.616331,271.310331 103.888004,270.927001 103.06,270.697 C102.231996,270.466999 101.388671,270.352 100.53,270.352 L95.3780003,270.352 L95.3780003,284.658 L100.852,284.658 C102.968011,284.658 104.577995,283.998673 105.682,282.68 C106.786006,281.361327 107.338,279.598011 107.338,277.39 L107.338,277.39 Z M111.046,302 L111.046,269.432 L122.776,269.432 L122.776,270.352 L112.058,270.352 L112.058,284.658 L122.132,284.658 L122.132,285.578 L112.058,285.578 L112.058,301.08 L123.098,301.08 L123.098,302 L111.046,302 Z M140.468,302 L126.76,270.628 L126.668,270.628 L126.668,302 L125.656,302 L125.656,269.432 L127.312,269.432 L140.974,300.758 L141.066,300.758 L141.066,269.432 L142.078,269.432 L142.078,302 L140.468,302 Z M146.706001,302 L146.706001,269.432 L158.436001,269.432 L158.436001,270.352 L147.718001,270.352 L147.718001,284.658 L157.792001,284.658 L157.792001,285.578 L147.718001,285.578 L147.718001,301.08 L158.758001,301.08 L158.758001,302 L146.706001,302 Z M177.876001,290.086 C177.876001,291.864676 177.738002,293.528326 177.462001,295.077 C177.185999,296.625674 176.726004,297.967328 176.082001,299.102 C175.437997,300.236672 174.579339,301.125997 173.506001,301.77 C172.432662,302.414003 171.098675,302.736 169.504001,302.736 C167.878659,302.736 166.529339,302.414003 165.456001,301.77 C164.382662,301.125997 163.524004,300.236672 162.880001,299.102 C162.235997,297.967328 161.783669,296.625674 161.523001,295.077 C161.262333,293.528326 161.132001,291.864676 161.132001,290.086 L161.132001,269.432 L162.144001,269.432 L162.144001,289.58 C162.144001,291.052007 162.228333,292.516326 162.397001,293.973 C162.565668,295.429674 162.910665,296.740661 163.432001,297.906 C163.953337,299.071339 164.696996,300.01433 165.663001,300.735 C166.629005,301.45567 167.909326,301.816 169.504001,301.816 C171.068008,301.816 172.332996,301.463337 173.299001,300.758 C174.265005,300.052663 175.016331,299.125006 175.553001,297.975 C176.08967,296.824994 176.442333,295.521674 176.611001,294.065 C176.779668,292.608326 176.864001,291.113341 176.864001,289.58 L176.864001,269.432 L177.876001,269.432 L177.876001,290.086 Z M195.338001,302 L188.484001,285.578 L183.332001,285.578 L183.332001,302 L182.320001,302 L182.320001,269.432 L188.714001,269.432 C189.511338,269.432 190.354663,269.546999 191.244001,269.777 C192.133338,270.007001 192.945997,270.420997 193.682001,271.019 C194.418004,271.617003 195.031332,272.429662 195.522001,273.457 C196.01267,274.484338 196.258001,275.795325 196.258001,277.39 C196.258001,278.892674 196.051003,280.157662 195.637001,281.185 C195.222999,282.212338 194.694004,283.047997 194.050001,283.692 C193.405997,284.336003 192.685338,284.803665 191.888001,285.095 C191.090663,285.386335 190.308671,285.532 189.542001,285.532 L196.488001,302 L195.338001,302 Z M195.292001,277.39 C195.292001,276.04066 195.100336,274.913671 194.717001,274.009 C194.333665,273.104329 193.82767,272.383669 193.199001,271.847 C192.570331,271.310331 191.842005,270.927001 191.014001,270.697 C190.185996,270.466999 189.342672,270.352 188.484001,270.352 L183.332001,270.352 L183.332001,284.658 L188.806001,284.658 C190.922011,284.658 192.531995,283.998673 193.636001,282.68 C194.740006,281.361327 195.292001,279.598011 195.292001,277.39 L195.292001,277.39 Z" id="ENTREPRENEUR-" fill="#673AB7"></path>
                    </g>
                    <g id="Group" transform="translate(1.000000, 198.000000)">
                        <circle id="Oval-1" fill-opacity="0.5" fill="#B6B6B6" cx="97.5" cy="4.5" r="4.5"></circle>
                        <path d="M0.5,4.5 L88.5,4.5" id="Line" stroke-opacity="0.5" stroke="#B6B6B6" stroke-linecap="square"></path>
                        <path d="M106.5,4.5 L194.5,4.5" id="Line" stroke-opacity="0.5" stroke="#B6B6B6" stroke-linecap="square"></path>
                    </g>
                    <g id="Group-Copy-2" transform="translate(1.000000, 329.000000)">
                        <circle id="Oval-1" fill-opacity="0.5" fill="#B6B6B6" cx="97.5" cy="4.5" r="4.5"></circle>
                        <path d="M0.5,4.5 L88.5,4.5" id="Line" stroke-opacity="0.5" stroke="#B6B6B6" stroke-linecap="square"></path>
                        <path d="M106.5,4.5 L194.5,4.5" id="Line" stroke-opacity="0.5" stroke="#B6B6B6" stroke-linecap="square"></path>
                    </g>
                    <g id="Group-Copy" transform="translate(1.000000, 0.000000)" stroke-opacity="0.5" stroke="#B6B6B6" stroke-linecap="square">
                        <path d="M0.5,1.5 L193.5,1.5" id="Line"></path>
                        <path d="M0.5,442.5 L193.5,442.5" id="Line"></path>
                    </g>
                </g>
                <g id="Group-2" transform="translate(0.000000, 209.000000)" stroke="#673AB7" stroke-width="7" stroke-linecap="square" sketch:type="MSShapeGroup">
                    <path d="M7.5,171.5 L42.5142822,171.5" id="Line"></path>
                    <path d="M7.5,215.5 L42.5,215.5" id="Line"></path>
                </g>
            </g>
        </g>
    </g>
</svg>